<?xml version="1.0" encoding="UTF-8"?>
<svg xmlns="http://www.w3.org/2000/svg" xmlns:xlink="http://www.w3.org/1999/xlink" width="66px" height="66px" viewBox="0 0 66 66" version="1.1">
<g id="surface1">
<path style=" stroke:none;fill-rule:nonzero;fill:rgb(0%,0%,0%);fill-opacity:1;" d="M 21.476562 9.34375 C 15.390625 12.066406 10.300781 14.398438 10.171875 14.515625 C 9.964844 14.695312 9.925781 14.925781 9.925781 15.917969 C 9.925781 16.988281 9.953125 17.132812 10.222656 17.375 C 10.621094 17.75 11.152344 17.738281 11.539062 17.335938 C 11.796875 17.09375 11.859375 16.898438 11.859375 16.398438 L 11.859375 15.765625 L 14.28125 14.695312 C 15.609375 14.101562 20.367188 11.976562 24.851562 9.976562 L 33.011719 6.34375 L 43.570312 11.046875 L 54.140625 15.765625 L 54.140625 24.828125 C 54.140625 34.40625 54.101562 35.308594 53.496094 38.066406 C 52.179688 44.097656 48.441406 50.066406 43.660156 53.804688 C 42.113281 55.015625 36.839844 58.601562 35.992188 59.027344 C 34.109375 59.96875 31.8125 59.941406 29.90625 58.976562 C 29.144531 58.585938 23.746094 54.886719 22.339844 53.804688 C 20.199219 52.140625 18.007812 49.71875 16.421875 47.308594 C 14.335938 44.097656 13.070312 40.980469 12.273438 37.007812 C 11.960938 35.410156 11.949219 35.269531 11.898438 28.296875 C 11.871094 23.835938 11.808594 21.074219 11.71875 20.871094 C 11.589844 20.535156 11.125 20.238281 10.75 20.238281 C 10.414062 20.238281 9.925781 20.84375 9.925781 21.269531 L 9.925781 21.65625 L 8.597656 21.65625 C 7.308594 21.65625 7.257812 21.644531 7.117188 21.347656 C 6.625 20.265625 5.324219 19.515625 4.113281 19.632812 C 3.25 19.710938 2.746094 19.953125 2.140625 20.574219 C 1.210938 21.527344 1.058594 23.0625 1.777344 24.222656 C 2.550781 25.484375 4.265625 26.011719 5.582031 25.394531 C 6.199219 25.109375 6.871094 24.453125 7.117188 23.898438 C 7.257812 23.601562 7.308594 23.589844 8.597656 23.589844 L 9.925781 23.589844 L 9.925781 30.035156 L 7.941406 30.035156 C 6.019531 30.035156 5.941406 30.023438 5.867188 29.765625 C 5.722656 29.3125 4.871094 28.460938 4.320312 28.21875 C 3.699219 27.933594 2.488281 27.894531 1.894531 28.140625 C 0.851562 28.578125 0 29.816406 0 30.886719 C 0 32.742188 1.714844 34.25 3.53125 33.980469 C 4.320312 33.851562 5.195312 33.257812 5.609375 32.5625 L 5.957031 31.96875 L 9.886719 31.96875 L 9.964844 33.605469 C 10.042969 35.101562 10.339844 37.484375 10.519531 38.054688 C 10.582031 38.273438 10.453125 38.285156 8.933594 38.285156 L 7.269531 38.285156 L 6.832031 37.613281 C 5.542969 35.679688 2.746094 35.875 1.636719 37.960938 C 1.25 38.683594 1.261719 39.960938 1.636719 40.683594 C 2.617188 42.539062 5.066406 42.875 6.535156 41.378906 C 6.753906 41.148438 7.011719 40.796875 7.089844 40.59375 L 7.246094 40.21875 L 11.035156 40.21875 L 11.523438 41.664062 C 13.265625 46.894531 16.9375 52.039062 21.410156 55.53125 C 22.625 56.472656 28.023438 60.148438 28.941406 60.664062 C 31.285156 61.953125 34.703125 61.964844 37.046875 60.664062 C 37.960938 60.171875 42.757812 56.914062 44.28125 55.765625 C 48.558594 52.53125 51.976562 48.03125 53.984375 42.976562 C 54.269531 42.269531 54.605469 41.351562 54.722656 40.953125 L 54.925781 40.21875 L 58.753906 40.21875 L 58.910156 40.59375 C 59.308594 41.558594 60.484375 42.308594 61.605469 42.308594 C 63.394531 42.308594 64.632812 41.070312 64.632812 39.316406 C 64.632812 38.09375 64.039062 37.113281 62.972656 36.570312 C 61.589844 35.875 59.710938 36.453125 59.039062 37.769531 L 58.78125 38.285156 L 57.09375 38.285156 C 55.546875 38.285156 55.417969 38.273438 55.480469 38.054688 C 55.660156 37.5 55.957031 35.101562 56.035156 33.605469 L 56.113281 31.96875 L 60.03125 31.96875 L 60.417969 32.601562 C 61 33.515625 61.8125 33.96875 62.90625 33.96875 C 63.449219 33.96875 63.910156 33.875 64.222656 33.722656 C 65.289062 33.207031 66 32.058594 66 30.886719 C 66 29.816406 65.148438 28.578125 64.105469 28.140625 C 63.511719 27.894531 62.300781 27.933594 61.683594 28.21875 C 61.128906 28.460938 60.277344 29.3125 60.136719 29.765625 C 60.058594 30.023438 59.980469 30.035156 58.058594 30.035156 L 56.074219 30.035156 L 56.074219 23.589844 L 58.753906 23.589844 L 58.910156 23.976562 C 59.117188 24.464844 59.914062 25.203125 60.535156 25.460938 C 61.644531 25.921875 63.292969 25.496094 64 24.570312 C 64.390625 24.054688 64.710938 23.175781 64.710938 22.636719 C 64.710938 21.589844 63.964844 20.394531 63.007812 19.902344 C 62.3125 19.542969 61.257812 19.515625 60.484375 19.851562 C 59.8125 20.136719 59.140625 20.765625 58.882812 21.347656 C 58.742188 21.644531 58.691406 21.65625 57.414062 21.65625 L 56.074219 21.65625 L 56.046875 18.164062 L 56.011719 14.65625 L 55.6875 14.425781 C 55.507812 14.28125 50.414062 11.976562 44.371094 9.28125 C 36.957031 5.980469 33.230469 4.382812 32.960938 4.394531 C 32.714844 4.394531 28.152344 6.367188 21.476562 9.34375 Z M 5.09375 21.847656 C 5.773438 22.519531 5.296875 23.71875 4.355469 23.71875 C 3.878906 23.707031 3.597656 23.539062 3.378906 23.113281 C 3.132812 22.660156 3.195312 22.300781 3.597656 21.902344 C 4.085938 21.425781 4.652344 21.398438 5.09375 21.847656 Z M 62.402344 21.902344 C 62.804688 22.300781 62.867188 22.660156 62.621094 23.113281 C 62.082031 24.144531 60.585938 23.78125 60.585938 22.625 C 60.585938 21.605469 61.667969 21.179688 62.402344 21.902344 Z M 3.804688 30.226562 C 4.5 30.925781 3.96875 32.097656 2.964844 32.097656 C 2.539062 32.097656 1.933594 31.414062 1.933594 30.9375 C 1.933594 30.023438 3.144531 29.558594 3.804688 30.226562 Z M 63.746094 30.226562 C 64.195312 30.667969 64.167969 31.234375 63.691406 31.722656 C 63.292969 32.125 62.933594 32.1875 62.480469 31.941406 C 61.835938 31.609375 61.683594 30.835938 62.144531 30.242188 C 62.507812 29.777344 63.292969 29.765625 63.746094 30.226562 Z M 4.808594 38.3125 C 5.234375 38.53125 5.402344 38.8125 5.414062 39.328125 C 5.425781 40.605469 3.519531 40.761719 3.273438 39.507812 C 3.105469 38.609375 4.023438 37.886719 4.808594 38.3125 Z M 62.054688 38.285156 C 63.203125 38.710938 62.828125 40.414062 61.589844 40.375 C 60.496094 40.347656 60.1875 38.839844 61.167969 38.3125 C 61.488281 38.128906 61.644531 38.128906 62.054688 38.285156 Z M 62.054688 38.285156 "/>
<path style=" stroke:none;fill-rule:nonzero;fill:rgb(0%,0%,0%);fill-opacity:1;" d="M 23.589844 12.621094 C 18.523438 14.886719 14.246094 16.835938 14.078125 16.949219 L 13.78125 17.171875 L 13.832031 26.207031 C 13.882812 35.886719 13.871094 35.71875 14.578125 38.476562 C 15.996094 44.023438 19.386719 49.164062 23.914062 52.605469 C 25.125 53.523438 30.292969 57.039062 30.886719 57.335938 C 32.109375 57.957031 33.890625 57.957031 35.113281 57.335938 C 35.707031 57.039062 40.914062 53.507812 42.085938 52.605469 C 46.820312 48.984375 50.183594 43.765625 51.5625 37.886719 C 52.105469 35.550781 52.207031 34.316406 52.207031 29.441406 C 52.207031 25.175781 52.195312 24.777344 51.988281 24.582031 C 51.5625 24.207031 51.113281 24.183594 50.710938 24.53125 L 50.339844 24.851562 L 50.261719 29.933594 C 50.210938 32.960938 50.117188 35.332031 50.027344 35.835938 C 49.035156 41.25 46.703125 45.660156 42.914062 49.304688 C 41.429688 50.738281 40.914062 51.125 37.253906 53.625 C 34.058594 55.816406 33.542969 56.046875 32.445312 55.816406 C 31.738281 55.675781 31.722656 55.660156 28.101562 53.171875 C 24.816406 50.929688 24.042969 50.3125 22.417969 48.636719 C 19.476562 45.605469 17.46875 42.011719 16.4375 37.925781 C 15.777344 35.308594 15.726562 34.574219 15.726562 26.101562 L 15.726562 18.238281 L 24.375 14.398438 L 33.011719 10.558594 L 41.636719 14.398438 L 50.246094 18.238281 L 50.300781 19.695312 C 50.339844 21.0625 50.363281 21.179688 50.648438 21.410156 C 51.035156 21.734375 51.628906 21.71875 51.949219 21.398438 C 52.179688 21.167969 52.207031 20.972656 52.207031 19.167969 C 52.207031 17.441406 52.179688 17.15625 51.988281 16.988281 C 51.703125 16.746094 33.246094 8.507812 32.988281 8.507812 C 32.882812 8.507812 28.65625 10.363281 23.589844 12.621094 Z M 23.589844 12.621094 "/>
<path style=" stroke:none;fill-rule:nonzero;fill:rgb(0%,0%,0%);fill-opacity:1;" d="M 30.679688 15.738281 C 28.0625 16.410156 25.910156 18.164062 24.710938 20.558594 C 23.949219 22.09375 23.820312 22.660156 23.730469 25.136719 L 23.65625 27.390625 L 22.660156 27.457031 C 21.605469 27.523438 21.21875 27.714844 20.703125 28.410156 C 20.445312 28.746094 20.429688 28.953125 20.394531 32.804688 C 20.355469 36.738281 20.367188 36.867188 20.625 37.125 C 20.972656 37.472656 21.667969 37.472656 21.992188 37.113281 C 22.222656 36.855469 22.238281 36.570312 22.273438 33.117188 L 22.3125 29.390625 L 43.699219 29.390625 L 43.671875 36.183594 L 43.632812 42.992188 L 22.367188 42.992188 L 22.300781 41.804688 C 22.222656 40.449219 21.992188 40.050781 21.28125 40.050781 C 20.507812 40.050781 20.367188 40.347656 20.367188 41.921875 C 20.367188 43.414062 20.46875 43.777344 21.039062 44.304688 C 21.785156 45.015625 21.410156 44.988281 33.027344 44.988281 C 43.171875 44.988281 43.789062 44.976562 44.28125 44.742188 C 44.847656 44.484375 45.464844 43.855469 45.570312 43.402344 C 45.605469 43.25 45.621094 39.882812 45.605469 35.9375 C 45.570312 28.925781 45.570312 28.757812 45.296875 28.410156 C 44.78125 27.714844 44.394531 27.523438 43.339844 27.457031 L 42.34375 27.390625 L 42.269531 25.136719 C 42.203125 23.332031 42.125 22.714844 41.90625 22.042969 C 40.851562 18.792969 38.246094 16.371094 35.101562 15.675781 C 33.824219 15.390625 31.890625 15.417969 30.679688 15.738281 Z M 34.84375 17.609375 C 37.175781 18.214844 39.148438 20.019531 39.960938 22.339844 C 40.207031 22.996094 40.257812 23.5 40.308594 25.292969 L 40.375 27.457031 L 38.15625 27.457031 L 38.15625 25.910156 C 38.15625 24.183594 38 23.28125 37.5625 22.402344 C 35.695312 18.691406 30.304688 18.691406 28.4375 22.402344 C 28 23.28125 27.84375 24.183594 27.84375 25.910156 L 27.84375 27.457031 L 25.625 27.457031 L 25.691406 25.292969 C 25.742188 23.5 25.792969 22.996094 26.039062 22.339844 C 26.839844 20.070312 28.695312 18.316406 31.003906 17.648438 C 31.996094 17.351562 33.8125 17.335938 34.84375 17.609375 Z M 34.609375 21.964844 C 35.847656 22.699219 36.273438 23.769531 36.195312 26.039062 L 36.15625 27.390625 L 29.84375 27.390625 L 29.84375 25.652344 C 29.84375 24.039062 29.867188 23.859375 30.164062 23.28125 C 30.523438 22.570312 31.183594 21.976562 31.917969 21.707031 C 32.679688 21.425781 33.890625 21.539062 34.609375 21.964844 Z M 34.609375 21.964844 "/>
<path style=" stroke:none;fill-rule:nonzero;fill:rgb(0%,0%,0%);fill-opacity:1;" d="M 31.917969 31.773438 C 30.808594 32.175781 29.996094 33.359375 29.996094 34.609375 C 29.996094 35.746094 30.511719 36.621094 31.59375 37.304688 C 31.917969 37.511719 31.941406 37.589844 31.996094 38.867188 C 32.058594 40.4375 32.226562 40.734375 33 40.734375 C 33.773438 40.734375 33.941406 40.449219 34.003906 38.851562 C 34.058594 37.550781 34.082031 37.5 34.40625 37.320312 C 35.347656 36.828125 36.003906 35.71875 36.003906 34.609375 C 36.003906 32.496094 33.929688 31.054688 31.917969 31.773438 Z M 33.722656 33.824219 C 34.46875 34.457031 33.980469 35.707031 33 35.707031 C 32.792969 35.707031 32.472656 35.566406 32.277344 35.398438 C 31.53125 34.765625 32.019531 33.515625 33 33.515625 C 33.207031 33.515625 33.527344 33.65625 33.722656 33.824219 Z M 33.722656 33.824219 "/>
</g>
</svg>
