<?xml version="1.0" encoding="UTF-8"?>
<svg xmlns="http://www.w3.org/2000/svg" xmlns:xlink="http://www.w3.org/1999/xlink" width="66px" height="66px" viewBox="0 0 66 66" version="1.1">
<g id="surface1">
<path style=" stroke:none;fill-rule:nonzero;fill:rgb(0%,0%,0%);fill-opacity:1;" d="M 21.128906 3.132812 C 20.226562 3.390625 19.347656 3.957031 18.472656 4.871094 C 16.488281 6.910156 14.503906 10.789062 13.804688 13.984375 L 13.585938 15.015625 L 12.167969 15.171875 C 5.054688 15.972656 0.386719 18.753906 0.0390625 22.457031 C -0.117188 24.183594 0.644531 25.78125 2.515625 27.664062 C 4.460938 29.621094 6.714844 31.015625 10.117188 32.355469 C 10.90625 32.664062 11.5625 32.921875 11.574219 32.949219 C 11.601562 32.960938 11.304688 33.296875 10.917969 33.695312 C 9.679688 34.921875 9.023438 36.816406 9.023438 39.097656 C 9.023438 42.617188 11.589844 47.449219 14.167969 48.789062 C 14.503906 48.972656 14.65625 49.101562 14.527344 49.113281 C 14.398438 49.113281 12.902344 48.882812 11.214844 48.597656 C 7.800781 48.03125 7.039062 47.980469 6.625 48.3125 C 6.070312 48.753906 5.890625 49.589844 6.199219 50.183594 C 6.289062 50.324219 8.429688 53.226562 10.96875 56.601562 C 14.746094 61.628906 15.648438 62.765625 15.996094 62.894531 C 16.589844 63.101562 49.410156 63.101562 50.003906 62.894531 C 50.351562 62.765625 51.253906 61.628906 55.03125 56.601562 C 57.570312 53.226562 59.710938 50.324219 59.800781 50.183594 C 60.109375 49.589844 59.929688 48.753906 59.375 48.3125 C 58.960938 47.980469 58.203125 48.03125 54.785156 48.597656 C 53.097656 48.882812 51.601562 49.113281 51.472656 49.113281 C 51.34375 49.101562 51.5 48.972656 51.832031 48.789062 C 54.410156 47.449219 56.976562 42.617188 56.976562 39.097656 C 56.976562 36.816406 56.320312 34.921875 55.082031 33.695312 C 54.695312 33.296875 54.398438 32.960938 54.425781 32.949219 C 54.4375 32.921875 55.109375 32.664062 55.882812 32.355469 C 59.179688 31.078125 61.539062 29.621094 63.488281 27.664062 C 65.355469 25.78125 66.117188 24.183594 65.960938 22.457031 C 65.613281 18.753906 60.945312 15.972656 53.832031 15.171875 L 52.414062 15.015625 L 52.195312 13.984375 C 51.226562 9.566406 48.25 4.71875 45.699219 3.46875 C 44.871094 3.066406 44.71875 3.027344 43.6875 3.054688 C 43.015625 3.066406 41.289062 3.3125 39.355469 3.660156 C 33.503906 4.730469 32.5625 4.730469 26.683594 3.671875 C 22.984375 3.015625 21.953125 2.914062 21.128906 3.132812 Z M 25.921875 6.585938 C 30.0625 7.335938 31.183594 7.476562 33 7.476562 C 34.816406 7.476562 35.9375 7.335938 40.078125 6.585938 C 41.664062 6.289062 43.3125 6.058594 43.738281 6.058594 L 44.523438 6.058594 L 45.246094 6.792969 C 46.859375 8.46875 48.570312 11.691406 49.230469 14.296875 C 49.472656 15.289062 49.5 15.738281 49.5 19.179688 L 49.5 22.972656 L 48.816406 23.640625 C 47.117188 25.292969 43.542969 26.347656 38.09375 26.8125 C 35.785156 27.007812 29.789062 26.96875 27.328125 26.75 C 21.964844 26.269531 18.421875 25.136719 16.925781 23.410156 L 16.5 22.933594 L 16.5 19.167969 C 16.5 15.738281 16.527344 15.289062 16.769531 14.296875 C 17.429688 11.691406 19.140625 8.46875 20.753906 6.792969 L 21.476562 6.058594 L 22.261719 6.058594 C 22.6875 6.058594 24.335938 6.289062 25.921875 6.585938 Z M 13.535156 20.78125 L 13.535156 23.523438 L 13.894531 24.296875 C 15.09375 26.824219 18.757812 28.605469 24.519531 29.441406 C 26.992188 29.816406 29.144531 29.933594 33 29.933594 C 39.046875 29.933594 42.785156 29.507812 46.214844 28.398438 C 49.320312 27.40625 51.277344 26.039062 52.105469 24.296875 L 52.464844 23.523438 L 52.464844 18.019531 L 52.824219 18.097656 C 53.019531 18.136719 53.546875 18.203125 54.011719 18.238281 C 55.160156 18.355469 57.621094 18.910156 58.71875 19.296875 C 61.65625 20.355469 63.304688 21.925781 62.917969 23.28125 C 62.160156 25.949219 57.710938 28.863281 51.691406 30.667969 C 41.238281 33.800781 24.519531 33.773438 14.117188 30.617188 C 8.238281 28.835938 3.828125 25.910156 3.082031 23.28125 C 2.695312 21.953125 4.253906 20.445312 7.078125 19.375 C 8.546875 18.820312 11.304688 18.253906 13.378906 18.058594 C 13.496094 18.046875 13.535156 18.679688 13.535156 20.78125 Z M 16.125 34.226562 C 16.847656 34.390625 17.46875 34.574219 17.503906 34.609375 C 17.542969 34.648438 17.480469 34.777344 17.363281 34.90625 C 16.847656 35.476562 16.589844 36.390625 16.527344 37.835938 C 16.4375 40.320312 16.925781 41.828125 18.292969 43.195312 C 19.621094 44.523438 20.972656 44.988281 23.460938 44.988281 C 25.949219 44.988281 27.78125 44.28125 29.3125 42.746094 C 30.730469 41.328125 31.453125 39.523438 31.453125 37.410156 C 31.453125 36.042969 31.425781 36.054688 33 36.054688 C 34.574219 36.054688 34.546875 36.042969 34.546875 37.410156 C 34.546875 39.523438 35.269531 41.328125 36.6875 42.746094 C 38.21875 44.28125 40.050781 44.988281 42.539062 44.988281 C 45.027344 44.988281 46.378906 44.523438 47.707031 43.195312 C 49.074219 41.828125 49.566406 40.320312 49.472656 37.835938 C 49.410156 36.390625 49.152344 35.476562 48.636719 34.90625 C 48.519531 34.777344 48.457031 34.648438 48.496094 34.609375 C 48.609375 34.496094 51.1875 33.902344 51.304688 33.96875 C 51.355469 33.992188 51.433594 34.199219 51.472656 34.40625 C 51.535156 34.6875 51.757812 34.921875 52.324219 35.308594 C 53.25 35.9375 53.574219 36.441406 53.832031 37.667969 C 54.21875 39.445312 53.832031 41.300781 52.621094 43.621094 C 51.847656 45.089844 50.90625 46.070312 50.15625 46.199219 C 49.359375 46.328125 48.945312 46.792969 48.328125 48.339844 C 48.03125 49.085938 47.773438 49.707031 47.746094 49.730469 C 47.734375 49.757812 45.992188 50.066406 43.878906 50.414062 C 41.753906 50.777344 39.898438 51.148438 39.730469 51.253906 C 39.574219 51.355469 38.015625 53.148438 36.273438 55.234375 C 34.535156 57.324219 33.0625 59.039062 33 59.039062 C 32.9375 59.039062 31.464844 57.324219 29.726562 55.234375 C 27.984375 53.148438 26.425781 51.355469 26.269531 51.253906 C 26.105469 51.148438 24.246094 50.777344 22.121094 50.414062 C 20.007812 50.066406 18.265625 49.757812 18.253906 49.730469 C 18.226562 49.707031 17.96875 49.085938 17.671875 48.339844 C 17.054688 46.792969 16.640625 46.328125 15.84375 46.199219 C 15.09375 46.070312 14.152344 45.089844 13.378906 43.621094 C 12.15625 41.300781 11.78125 39.445312 12.167969 37.652344 C 12.414062 36.480469 12.800781 35.875 13.625 35.347656 C 14.21875 34.960938 14.4375 34.703125 14.617188 34.121094 C 14.707031 33.851562 14.554688 33.835938 16.125 34.226562 Z M 27.496094 36.144531 C 28.230469 36.453125 28.425781 36.789062 28.425781 37.757812 C 28.410156 38.828125 27.972656 39.832031 27.171875 40.632812 C 26.140625 41.675781 24.789062 42.085938 22.816406 41.996094 C 21.605469 41.933594 20.945312 41.675781 20.355469 41.03125 C 19.671875 40.296875 19.53125 39.871094 19.53125 38.386719 C 19.53125 36.828125 19.710938 36.414062 20.507812 36.132812 C 21.167969 35.898438 26.941406 35.914062 27.496094 36.144531 Z M 45.492188 36.132812 C 46.289062 36.414062 46.472656 36.828125 46.472656 38.386719 C 46.472656 39.546875 46.417969 39.84375 46.1875 40.28125 C 45.863281 40.890625 45.363281 41.390625 44.730469 41.714844 C 44.164062 41.996094 42.382812 42.101562 41.328125 41.90625 C 39.125 41.496094 37.589844 39.792969 37.578125 37.757812 C 37.578125 36.804688 37.769531 36.453125 38.476562 36.144531 C 38.992188 35.914062 44.847656 35.898438 45.492188 36.132812 Z M 24.632812 53.882812 C 24.722656 53.882812 29.648438 59.773438 29.648438 59.875 C 29.648438 59.914062 26.851562 59.941406 23.421875 59.941406 L 17.210938 59.941406 L 14.4375 56.242188 C 12.917969 54.21875 11.511719 52.335938 11.316406 52.078125 L 10.96875 51.601562 L 17.761719 52.75 C 21.5 53.367188 24.59375 53.882812 24.632812 53.882812 Z M 54.695312 52.050781 C 54.5 52.324219 53.082031 54.21875 51.5625 56.242188 L 48.792969 59.941406 L 42.578125 59.941406 C 39.148438 59.941406 36.351562 59.914062 36.351562 59.875 C 36.351562 59.839844 37.460938 58.484375 38.8125 56.859375 L 41.277344 53.894531 L 42.140625 53.753906 C 45.957031 53.121094 54.992188 51.589844 55.015625 51.574219 C 55.042969 51.5625 54.902344 51.78125 54.695312 52.050781 Z M 54.695312 52.050781 "/>
</g>
</svg>
