<?xml version="1.0" encoding="UTF-8"?>
<svg xmlns="http://www.w3.org/2000/svg" xmlns:xlink="http://www.w3.org/1999/xlink" width="66px" height="66px" viewBox="0 0 66 66" version="1.1">
<g id="surface1">
<path style=" stroke:none;fill-rule:nonzero;fill:rgb(0%,0%,0%);fill-opacity:1;" d="M 7.21875 1.199219 C 6.585938 1.40625 5.503906 2.511719 5.3125 3.171875 C 5.207031 3.542969 5.15625 5.117188 5.15625 8.558594 L 5.15625 13.40625 L 4.433594 13.40625 C 4.035156 13.40625 3.46875 13.46875 3.171875 13.5625 C 2.460938 13.765625 1.390625 14.835938 1.1875 15.546875 C 0.96875 16.304688 0.96875 33.195312 1.1875 33.953125 C 1.390625 34.664062 2.460938 35.734375 3.171875 35.9375 C 3.46875 36.03125 4.035156 36.09375 4.433594 36.09375 L 5.15625 36.09375 L 5.15625 49.191406 C 5.15625 59.101562 5.195312 62.429688 5.3125 62.828125 C 5.515625 63.539062 6.585938 64.609375 7.296875 64.8125 C 8.070312 65.046875 53.804688 65.046875 54.578125 64.8125 C 55.289062 64.609375 56.359375 63.539062 56.5625 62.828125 C 56.679688 62.429688 56.71875 59.929688 56.71875 53.03125 L 56.71875 43.777344 L 60.367188 40.101562 C 63.320312 37.136719 64.09375 36.273438 64.375 35.679688 C 65.972656 32.367188 64.027344 28.554688 60.40625 27.933594 C 59.234375 27.742188 58.058594 27.945312 56.820312 28.589844 C 56.757812 28.617188 56.71875 23.023438 56.71875 16.164062 C 56.71875 6.910156 56.679688 3.570312 56.5625 3.195312 C 56.488281 2.914062 56.164062 2.398438 55.855469 2.0625 C 54.851562 0.941406 57.09375 1.03125 30.886719 1.042969 C 14.347656 1.058594 7.542969 1.09375 7.21875 1.199219 Z M 54.335938 3.414062 C 54.65625 3.726562 54.65625 3.726562 54.65625 6.507812 L 54.65625 9.28125 L 7.21875 9.28125 L 7.21875 6.507812 C 7.21875 3.726562 7.21875 3.726562 7.542969 3.414062 L 7.851562 3.09375 L 54.023438 3.09375 Z M 54.65625 20.921875 L 54.65625 30.484375 L 52.59375 32.546875 L 52.59375 25.78125 L 34.03125 25.78125 L 34.03125 36.09375 L 49.050781 36.09375 L 41.042969 44.113281 L 33.039062 52.140625 L 32.421875 56.5 C 32.085938 58.898438 31.839844 60.894531 31.878906 60.933594 C 31.917969 60.972656 33.914062 60.726562 36.3125 60.390625 L 40.671875 59.773438 L 47.667969 52.800781 L 54.65625 45.828125 L 54.65625 62.273438 L 54.335938 62.585938 L 54.023438 62.90625 L 7.851562 62.90625 L 7.542969 62.585938 L 7.21875 62.273438 L 7.21875 36.09375 L 17.222656 36.09375 C 24.710938 36.09375 27.367188 36.054688 27.765625 35.9375 C 28.476562 35.734375 29.546875 34.664062 29.75 33.953125 C 29.972656 33.207031 29.972656 16.304688 29.75 15.570312 C 29.675781 15.289062 29.351562 14.773438 29.042969 14.4375 C 28.074219 13.355469 28.667969 13.40625 17.246094 13.40625 L 7.21875 13.40625 L 7.21875 11.34375 L 54.65625 11.34375 Z M 27.523438 15.789062 L 27.84375 16.101562 L 27.84375 33.398438 L 27.523438 33.710938 L 27.210938 34.03125 L 3.726562 34.03125 L 3.417969 33.710938 L 3.09375 33.398438 L 3.09375 16.101562 L 3.417969 15.789062 L 3.726562 15.46875 L 27.210938 15.46875 Z M 50.53125 30.9375 L 50.53125 34.03125 L 36.09375 34.03125 L 36.09375 27.84375 L 50.53125 27.84375 Z M 61.039062 30.265625 C 62.53125 31.027344 63.230469 32.714844 62.714844 34.300781 C 62.507812 34.90625 62.234375 35.242188 60.636719 36.867188 L 58.792969 38.734375 L 56.433594 36.390625 L 54.078125 34.03125 L 55.816406 32.277344 C 57.996094 30.101562 58.355469 29.878906 59.75 29.957031 C 60.199219 29.984375 60.742188 30.113281 61.039062 30.265625 Z M 53.433594 36.351562 L 54.207031 37.125 L 45.660156 45.671875 L 37.125 54.203125 L 36.324219 53.394531 L 35.515625 52.59375 L 44.023438 44.085938 C 48.699219 39.40625 52.554688 35.578125 52.59375 35.578125 C 52.632812 35.578125 53.007812 35.925781 53.433594 36.351562 Z M 56.527344 39.445312 L 57.300781 40.21875 L 48.753906 48.765625 L 40.21875 57.296875 L 39.417969 56.488281 L 38.609375 55.6875 L 47.117188 47.179688 C 51.792969 42.5 55.648438 38.671875 55.6875 38.671875 C 55.726562 38.671875 56.101562 39.019531 56.527344 39.445312 Z M 36.414062 56.460938 C 37.253906 57.296875 37.925781 58.019531 37.898438 58.046875 C 37.769531 58.148438 34.40625 58.5625 34.328125 58.484375 C 34.238281 58.382812 34.6875 54.914062 34.792969 54.914062 C 34.84375 54.914062 35.566406 55.609375 36.414062 56.460938 Z M 36.414062 56.460938 "/>
<path style=" stroke:none;fill-rule:nonzero;fill:rgb(0%,0%,0%);fill-opacity:1;" d="M 8.25 6.1875 L 8.25 7.21875 L 10.3125 7.21875 L 10.3125 5.15625 L 8.25 5.15625 Z M 8.25 6.1875 "/>
<path style=" stroke:none;fill-rule:nonzero;fill:rgb(0%,0%,0%);fill-opacity:1;" d="M 12.375 6.1875 L 12.375 7.21875 L 14.4375 7.21875 L 14.4375 5.15625 L 12.375 5.15625 Z M 12.375 6.1875 "/>
<path style=" stroke:none;fill-rule:nonzero;fill:rgb(0%,0%,0%);fill-opacity:1;" d="M 16.5 6.1875 L 16.5 7.21875 L 18.5625 7.21875 L 18.5625 5.15625 L 16.5 5.15625 Z M 16.5 6.1875 "/>
<path style=" stroke:none;fill-rule:nonzero;fill:rgb(0%,0%,0%);fill-opacity:1;" d="M 34.03125 18.5625 L 34.03125 23.71875 L 52.59375 23.71875 L 52.59375 13.40625 L 34.03125 13.40625 Z M 50.53125 18.5625 L 50.53125 21.65625 L 36.09375 21.65625 L 36.09375 15.46875 L 50.53125 15.46875 Z M 50.53125 18.5625 "/>
<path style=" stroke:none;fill-rule:nonzero;fill:rgb(0%,0%,0%);fill-opacity:1;" d="M 11.34375 43.3125 L 11.34375 48.46875 L 9.28125 48.46875 L 9.28125 50.53125 L 11.34375 50.53125 L 11.34375 52.59375 L 13.40625 52.59375 L 13.40625 50.53125 L 15.46875 50.53125 L 15.46875 48.46875 L 13.40625 48.46875 L 13.40625 38.15625 L 11.34375 38.15625 Z M 11.34375 43.3125 "/>
<path style=" stroke:none;fill-rule:nonzero;fill:rgb(0%,0%,0%);fill-opacity:1;" d="M 19.59375 39.1875 L 19.59375 40.21875 L 17.53125 40.21875 L 17.53125 42.28125 L 19.59375 42.28125 L 19.59375 52.59375 L 21.65625 52.59375 L 21.65625 42.28125 L 23.71875 42.28125 L 23.71875 40.21875 L 21.65625 40.21875 L 21.65625 38.15625 L 19.59375 38.15625 Z M 19.59375 39.1875 "/>
<path style=" stroke:none;fill-rule:nonzero;fill:rgb(0%,0%,0%);fill-opacity:1;" d="M 27.84375 41.25 L 27.84375 44.34375 L 25.78125 44.34375 L 25.78125 46.40625 L 27.84375 46.40625 L 27.84375 52.59375 L 29.90625 52.59375 L 29.90625 46.40625 L 31.96875 46.40625 L 31.96875 44.34375 L 29.90625 44.34375 L 29.90625 38.15625 L 27.84375 38.15625 Z M 27.84375 41.25 "/>
<path style=" stroke:none;fill-rule:nonzero;fill:rgb(0%,0%,0%);fill-opacity:1;" d="M 50.53125 51.5625 L 50.53125 52.59375 L 52.59375 52.59375 L 52.59375 50.53125 L 50.53125 50.53125 Z M 50.53125 51.5625 "/>
<path style=" stroke:none;fill-rule:nonzero;fill:rgb(0%,0%,0%);fill-opacity:1;" d="M 9.28125 55.6875 L 9.28125 56.71875 L 29.90625 56.71875 L 29.90625 54.65625 L 9.28125 54.65625 Z M 9.28125 55.6875 "/>
<path style=" stroke:none;fill-rule:nonzero;fill:rgb(0%,0%,0%);fill-opacity:1;" d="M 50.53125 55.6875 L 50.53125 56.71875 L 52.59375 56.71875 L 52.59375 54.65625 L 50.53125 54.65625 Z M 50.53125 55.6875 "/>
<path style=" stroke:none;fill-rule:nonzero;fill:rgb(0%,0%,0%);fill-opacity:1;" d="M 9.28125 59.8125 L 9.28125 60.84375 L 25.78125 60.84375 L 25.78125 58.78125 L 9.28125 58.78125 Z M 9.28125 59.8125 "/>
<path style=" stroke:none;fill-rule:nonzero;fill:rgb(0%,0%,0%);fill-opacity:1;" d="M 27.84375 59.8125 L 27.84375 60.84375 L 29.90625 60.84375 L 29.90625 58.78125 L 27.84375 58.78125 Z M 27.84375 59.8125 "/>
<path style=" stroke:none;fill-rule:nonzero;fill:rgb(0%,0%,0%);fill-opacity:1;" d="M 50.53125 59.8125 L 50.53125 60.84375 L 52.59375 60.84375 L 52.59375 58.78125 L 50.53125 58.78125 Z M 50.53125 59.8125 "/>
<path style=" stroke:none;fill-rule:nonzero;fill:rgb(0%,0%,0%);fill-opacity:1;" d="M 14.527344 24.402344 C 13.417969 27.753906 12.503906 30.523438 12.503906 30.578125 C 12.503906 30.667969 14 31.195312 14.257812 31.195312 C 14.398438 31.195312 18.433594 19.398438 18.433594 18.988281 C 18.433594 18.859375 17.042969 18.304688 16.695312 18.304688 C 16.628906 18.304688 15.648438 21.050781 14.527344 24.402344 Z M 14.527344 24.402344 "/>
<path style=" stroke:none;fill-rule:nonzero;fill:rgb(0%,0%,0%);fill-opacity:1;" d="M 7.089844 22.367188 L 4.703125 24.75 L 7.128906 27.160156 L 9.539062 29.585938 L 10.273438 28.835938 L 11.023438 28.101562 L 9.34375 26.425781 L 7.671875 24.75 L 9.320312 23.101562 C 10.222656 22.199219 10.957031 21.398438 10.957031 21.320312 C 10.957031 21.167969 9.769531 19.980469 9.601562 19.980469 C 9.527344 19.980469 8.40625 21.050781 7.089844 22.367188 Z M 7.089844 22.367188 "/>
<path style=" stroke:none;fill-rule:nonzero;fill:rgb(0%,0%,0%);fill-opacity:1;" d="M 20.585938 20.597656 C 20.25 20.933594 19.980469 21.269531 19.980469 21.332031 C 19.980469 21.398438 20.714844 22.199219 21.617188 23.101562 L 23.269531 24.75 L 21.59375 26.425781 L 19.914062 28.101562 L 20.664062 28.835938 L 21.398438 29.585938 L 23.808594 27.160156 L 26.234375 24.75 L 23.847656 22.367188 C 22.53125 21.050781 21.398438 19.980469 21.335938 19.980469 C 21.257812 19.980469 20.921875 20.265625 20.585938 20.597656 Z M 20.585938 20.597656 "/>
</g>
</svg>
