<?xml version="1.0" encoding="UTF-8"?>
<svg xmlns="http://www.w3.org/2000/svg" xmlns:xlink="http://www.w3.org/1999/xlink" width="33px" height="8px" viewBox="0 0 33 8" version="1.1">
<g id="surface1">
<path style=" stroke:none;fill-rule:evenodd;fill:rgb(26.27451%,23.137255%,19.215686%);fill-opacity:1;" d="M 32.96875 3.882812 C 32.96875 3.957031 32.96875 4.027344 32.96875 4.101562 C 32.871094 4.136719 32.777344 4.171875 32.679688 4.210938 C 30.347656 4.761719 28.039062 5.316406 25.75 5.875 C 25.039062 5.964844 24.40625 5.941406 23.847656 5.804688 C 23.546875 5.679688 23.546875 5.554688 23.847656 5.429688 C 25.382812 5.058594 26.921875 4.683594 28.457031 4.3125 C 19.238281 4.308594 10.023438 4.300781 0.804688 4.296875 C 0.40625 4.261719 0.128906 4.195312 -0.03125 4.101562 C -0.03125 4.027344 -0.03125 3.957031 -0.03125 3.882812 C 0.128906 3.789062 0.40625 3.722656 0.804688 3.6875 C 10.023438 3.683594 19.238281 3.675781 28.457031 3.671875 C 26.921875 3.300781 25.382812 2.925781 23.847656 2.554688 C 23.429688 2.359375 23.589844 2.203125 24.332031 2.078125 C 24.828125 2.039062 25.300781 2.050781 25.75 2.109375 C 28.039062 2.667969 30.347656 3.222656 32.679688 3.773438 C 32.777344 3.8125 32.871094 3.847656 32.96875 3.882812 Z M 32.96875 3.882812 "/>
</g>
</svg>
